<svg width="58" height="50" viewBox="0 0 58 50" fill="none" xmlns="http://www.w3.org/2000/svg" xmlns:xlink="http://www.w3.org/1999/xlink">
<path d="M40,11.103C40,17.544 34.628,22.766 28,22.766C21.373,22.766 16,17.544 16,11.103C16,4.661 21.373,-0.561 28,-0.561C34.628,-0.561 40,4.661 40,11.103ZM36,11.103C36,15.397 32.419,18.879 28,18.879C23.582,18.879 20,15.397 20,11.103C20,6.808 23.582,3.327 28,3.327C32.419,3.327 36,6.808 36,11.103Z" clip-rule="evenodd" fill-rule="evenodd" fill="#21005D"/>
<path d="M28,28.598C15.052,28.598 4.019,36.04 -0.184,46.467C0.84,47.455 1.919,48.389 3.047,49.266C6.177,39.693 15.994,32.486 28,32.486C40.007,32.486 49.824,39.693 52.954,49.266C54.082,48.39 55.161,47.455 56.185,46.467C51.982,36.04 40.949,28.598 28,28.598Z" fill="#21005D"/>
</svg>
