<svg width="158" height="142" viewBox="0 0 158 142" fill="none" xmlns="http://www.w3.org/2000/svg" xmlns:xlink="http://www.w3.org/1999/xlink">
<path d="M112.301,32.8C112.301,51.191 97.393,66.1 79.001,66.1C60.61,66.1 45.701,51.191 45.701,32.8C45.701,14.409 60.61,-0.5 79.001,-0.5C97.393,-0.5 112.301,14.409 112.301,32.8ZM101.201,32.8C101.201,45.061 91.262,55 79.001,55C66.741,55 56.801,45.061 56.801,32.8C56.801,20.539 66.741,10.6 79.001,10.6C91.262,10.6 101.201,20.539 101.201,32.8Z" clip-rule="evenodd" fill-rule="evenodd" fill="#21005D"/>
<path d="M79.001,82.75C43.069,82.75 12.453,103.998 0.791,133.766C3.632,136.587 6.624,139.255 9.756,141.758C18.44,114.428 45.683,93.85 79.001,93.85C112.32,93.85 139.563,114.428 148.247,141.758C151.378,139.256 154.371,136.587 157.212,133.766C145.55,103.998 114.934,82.75 79.001,82.75Z" fill="#21005D"/>
</svg>
