<svg width="208" height="184" viewBox="0 0 208 184" fill="none" xmlns="http://www.w3.org/2000/svg" xmlns:xlink="http://www.w3.org/1999/xlink">
<path d="M147.102,42.4C147.102,66.093 127.357,85.3 103.002,85.3C78.646,85.3 58.902,66.093 58.902,42.4C58.902,18.707 78.646,-0.5 103.002,-0.5C127.357,-0.5 147.102,18.707 147.102,42.4ZM132.402,42.4C132.402,58.195 119.239,71 103.002,71C86.765,71 73.602,58.195 73.602,42.4C73.602,26.605 86.765,13.8 103.002,13.8C119.239,13.8 132.402,26.605 132.402,42.4Z" clip-rule="evenodd" fill-rule="evenodd" fill="#21005D"/>
<path d="M103.002,106.75C55.415,106.75 14.87,134.123 -0.575,172.473C3.188,176.108 7.151,179.545 11.298,182.769C22.799,147.56 58.878,121.05 103.002,121.05C147.126,121.05 183.205,147.56 194.706,182.769C198.852,179.545 202.815,176.108 206.579,172.473C191.134,134.123 150.588,106.75 103.002,106.75Z" fill="#21005D"/>
</svg>
