<svg width="60" height="52" viewBox="0 0 60 52" fill="none" xmlns="http://www.w3.org/2000/svg" xmlns:xlink="http://www.w3.org/1999/xlink">
<path d="M42,12.103C42,18.544 36.628,23.766 30,23.766C23.373,23.766 18,18.544 18,12.103C18,5.661 23.373,0.439 30,0.439C36.628,0.439 42,5.661 42,12.103ZM38,12.103C38,16.397 34.419,19.878 30,19.878C25.582,19.878 22,16.397 22,12.103C22,7.808 25.582,4.327 30,4.327C34.419,4.327 38,7.808 38,12.103Z" clip-rule="evenodd" fill-rule="evenodd" fill="#21005D"/>
<path d="M30,29.598C17.052,29.598 6.019,37.04 1.816,47.467C2.84,48.455 3.919,49.389 5.047,50.266C8.177,40.693 17.994,33.486 30,33.486C42.007,33.486 51.824,40.693 54.954,50.266C56.082,49.39 57.161,48.455 58.185,47.467C53.982,37.04 42.949,29.598 30,29.598Z" fill="#21005D"/>
<path d="M40.219,12.103C40.219,18.544 34.86,23.766 28.249,23.766C21.639,23.766 16.28,18.544 16.28,12.103C16.28,5.661 21.639,0.439 28.249,0.439C34.86,0.439 40.219,5.661 40.219,12.103ZM36.229,12.103C36.229,16.397 32.656,19.878 28.249,19.878C23.842,19.878 20.27,16.397 20.27,12.103C20.27,7.808 23.842,4.327 28.249,4.327C32.656,4.327 36.229,7.808 36.229,12.103Z" clip-rule="evenodd" fill-rule="evenodd" fill="#21005D"/>
<path d="M28.249,29.598C15.333,29.598 4.329,37.04 0.137,47.467C1.158,48.455 2.234,49.389 3.359,50.266C6.481,40.693 16.273,33.486 28.249,33.486C40.225,33.486 50.018,40.693 53.139,50.266C54.265,49.39 55.341,48.455 56.362,47.467C52.17,37.04 41.165,29.598 28.249,29.598Z" fill="#21005D"/>
</svg>
