<svg width="524" height="344" viewBox="0 0 524 344" fill="none" xmlns="http://www.w3.org/2000/svg" xmlns:xlink="http://www.w3.org/1999/xlink">
<g opacity="0.05" style="isolation:isolate">
<path d="M2,239.671C2,239.671 72.968,186.307 105,185C137.032,183.693 149.742,232 190,232C230.258,232 235.738,154 279,154C322.262,154 322.946,88.827 365.472,88.827C408,88.827 431,169 447,170C463,171 523,170 523,170L523,343.999L2,343.999L2,239.671Z" clip-rule="evenodd" fill-rule="evenodd" fill="url(#pf_0_61_826)"/>
</g>
<path d="M190,232L190,230L190,232ZM2,239.671C3.202,241.269 3.202,241.269 3.202,241.269C3.203,241.269 3.204,241.268 3.205,241.267C3.207,241.266 3.21,241.264 3.214,241.261C3.222,241.254 3.234,241.245 3.251,241.233C3.284,241.208 3.335,241.17 3.401,241.12C3.535,241.021 3.734,240.872 3.996,240.678C4.52,240.29 5.294,239.719 6.291,238.991C8.285,237.535 11.173,235.453 14.739,232.949C21.872,227.94 31.711,221.251 42.543,214.525C53.381,207.794 65.18,201.047 76.236,195.907C87.352,190.74 97.491,187.308 105.082,186.999L104.918,183.002C96.493,183.346 85.749,187.074 74.55,192.28C63.291,197.514 51.341,204.353 40.433,211.127C29.519,217.904 19.614,224.638 12.44,229.676C8.852,232.195 5.945,234.292 3.933,235.76C2.927,236.494 2.145,237.071 1.614,237.465C1.348,237.662 1.145,237.813 1.008,237.915C0.939,237.966 0.887,238.005 0.852,238.032C0.835,238.045 0.821,238.055 0.812,238.062C0.808,238.065 0.804,238.068 0.802,238.069C0.801,238.07 0.8,238.071 0.799,238.072C0.798,238.072 0.798,238.072 2,239.671ZM105.082,186.999C112.529,186.695 118.909,189.256 125.001,193.441C131.15,197.665 136.855,203.43 143.019,209.442C155.203,221.326 168.975,234 190,234L190,230C170.767,230 158.055,218.521 145.812,206.578C139.761,200.677 133.767,194.61 127.266,190.144C120.707,185.639 113.487,182.652 104.918,183.002L105.082,186.999ZM190,234C200.809,234 209.192,228.731 216.266,221.18C223.29,213.682 229.216,203.726 235.084,194.036C241.012,184.248 246.894,174.709 253.926,167.593C260.904,160.533 268.876,156 279,156L279,152C267.492,152 258.556,157.218 251.08,164.782C243.66,172.291 237.544,182.252 231.662,191.964C225.722,201.775 220.024,211.318 213.346,218.445C206.72,225.519 199.32,230 190,230L190,234ZM279,156C301.822,156 314.008,138.685 325.408,122.569C337.076,106.076 347.938,90.827 368,90.827L368,86.827C345.536,86.827 333.528,104.165 322.144,120.259C310.492,136.728 299.44,152 279,152L279,156ZM368,90.827C377.954,90.827 386.744,95.507 394.678,102.839C402.624,110.182 409.554,120.047 415.746,130.088C418.836,135.1 421.722,140.123 424.452,144.874C427.174,149.611 429.752,154.092 432.196,157.963C434.63,161.82 436.992,165.168 439.306,167.603C441.564,169.979 444.088,171.822 446.876,171.996L447.124,168.004C445.912,167.928 444.296,167.047 442.206,164.847C440.17,162.706 437.976,159.627 435.578,155.827C433.188,152.041 430.654,147.636 427.92,142.88C425.194,138.138 422.278,133.062 419.15,127.989C412.906,117.862 405.746,107.622 397.392,99.901C389.026,92.169 379.31,86.827 368,86.827L368,90.827ZM446.876,171.996C454.962,172.502 474.044,172.5 491.014,172.375C499.52,172.313 507.524,172.219 513.402,172.141C516.34,172.102 518.748,172.066 520.422,172.041C521.258,172.028 521.91,172.018 522.354,172.011C522.576,172.007 522.746,172.005 522.86,172.003C522.918,172.002 522.96,172.001 522.99,172.001C523.004,172 523.014,172 523.022,172C523.026,172 523.028,172 523.03,172C523.032,172 523.032,172 523.032,172C523.034,172 523.034,172 523,170C522.966,168 522.966,168 522.966,168C522.966,168 522.964,168 522.964,168C522.962,168.001 522.96,168.001 522.956,168.001C522.948,168.001 522.938,168.001 522.924,168.001C522.894,168.002 522.852,168.002 522.794,168.003C522.68,168.005 522.512,168.008 522.29,168.011C521.848,168.018 521.196,168.029 520.36,168.041C518.69,168.067 516.284,168.102 513.348,168.141C507.476,168.219 499.48,168.313 490.986,168.375C473.956,168.5 455.038,168.499 447.124,168.004L446.876,171.996Z" fill="#65558F"/>
<defs>
<linearGradient id="pf_0_61_826" x1="101.779" y1="178.999" x2="95.599" y2="342.487" gradientUnits="userSpaceOnUse">
<stop stop-color="#0AE1EF"/>
<stop offset="1" stop-color="#04BFDA" stop-opacity="0"/>
</linearGradient>
</defs>
</svg>
