<svg width="64" height="60" viewBox="0 0 64 60" fill="none" xmlns="http://www.w3.org/2000/svg" xmlns:xlink="http://www.w3.org/1999/xlink">
<path d="M28.833,43.583L35.167,43.583L35.167,31.917L47.833,31.917L47.833,26.083L35.167,26.083L35.167,14.417L28.833,14.417L28.833,26.083L16.167,26.083L16.167,31.917L28.833,31.917L28.833,43.583ZM32,58.167C27.619,58.167 23.503,57.413 19.65,55.906C15.797,54.351 12.446,52.26 9.596,49.635C6.746,47.01 4.476,43.923 2.787,40.375C1.151,36.826 0.333,33.035 0.333,29C0.333,24.965 1.151,21.173 2.787,17.625C4.476,14.076 6.746,10.989 9.596,8.364C12.446,5.739 15.797,3.674 19.65,2.167C23.503,0.611 27.619,-0.167 32,-0.167C36.38,-0.167 40.497,0.611 44.35,2.167C48.203,3.674 51.554,5.739 54.404,8.364C57.254,10.989 59.497,14.076 61.133,17.625C62.822,21.173 63.667,24.965 63.667,29C63.667,33.035 62.822,36.826 61.133,40.375C59.497,43.923 57.254,47.01 54.404,49.635C51.554,52.26 48.203,54.351 44.35,55.906C40.497,57.413 36.38,58.167 32,58.167ZM32,52.333C39.072,52.333 45.062,50.073 49.971,45.552C54.879,41.031 57.333,35.514 57.333,29C57.333,22.486 54.879,16.969 49.971,12.448C45.062,7.927 39.072,5.667 32,5.667C24.928,5.667 18.937,7.927 14.029,12.448C9.121,16.969 6.667,22.486 6.667,29C6.667,35.514 9.121,41.031 14.029,45.552C18.937,50.073 24.928,52.333 32,52.333Z" fill="#1D1B20"/>
</svg>
