<svg width="62" height="62" viewBox="0 0 62 62" fill="none" xmlns="http://www.w3.org/2000/svg" xmlns:xlink="http://www.w3.org/1999/xlink">
<path d="M22.25,61C24.459,61 26.25,59.209 26.25,57C26.25,54.791 24.459,53 22.25,53L22.25,61ZM4.75,51L0.75,51L4.75,51ZM10.583,3L10.583,-1L10.583,3ZM22.25,7C24.459,7 26.25,5.209 26.25,3C26.25,0.791 24.459,-1 22.25,-1L22.25,7ZM39.799,42.212C38.259,43.796 38.294,46.328 39.878,47.868C41.462,49.408 43.995,49.372 45.535,47.788L39.799,42.212ZM57.25,30L60.118,32.788C61.627,31.236 61.627,28.764 60.118,27.212L57.25,30ZM45.535,12.212C43.995,10.628 41.462,10.592 39.878,12.132C38.294,13.672 38.259,16.204 39.799,17.788L45.535,12.212ZM22.25,26C20.041,26 18.25,27.791 18.25,30C18.25,32.209 20.041,34 22.25,34L22.25,26ZM22.25,53L10.583,53L10.583,61L22.25,61L22.25,53ZM10.583,53C10.134,53 9.68,52.817 9.327,52.454L3.591,58.031C5.425,59.918 7.938,61 10.583,61L10.583,53ZM9.327,52.454C8.97,52.087 8.75,51.566 8.75,51L0.75,51C0.75,53.616 1.759,56.147 3.591,58.031L9.327,52.454ZM8.75,51L8.75,9L0.75,9L0.75,51L8.75,51ZM8.75,9C8.75,8.434 8.97,7.913 9.327,7.546L3.591,1.969C1.759,3.853 0.75,6.384 0.75,9L8.75,9ZM9.327,7.546C9.68,7.183 10.134,7 10.583,7L10.583,-1C7.938,-1 5.425,0.082 3.591,1.969L9.327,7.546ZM10.583,7L22.25,7L22.25,-1L10.583,-1L10.583,7ZM45.535,47.788L60.118,32.788L54.382,27.212L39.799,42.212L45.535,47.788ZM60.118,27.212L45.535,12.212L39.799,17.788L54.382,32.788L60.118,27.212ZM57.25,26L22.25,26L22.25,34L57.25,34L57.25,26Z" fill="#1E1E1E"/>
</svg>
