<svg width="538" height="2" viewBox="0 0 538 2" fill="none" xmlns="http://www.w3.org/2000/svg" xmlns:xlink="http://www.w3.org/1999/xlink">
<path d="M0,1L2,1L2,-1L0,-1L0,1ZM6,1L10,1L10,-1L6,-1L6,1ZM14,1L18,1L18,-1L14,-1L14,1ZM22,1L26,1L26,-1L22,-1L22,1ZM30,1L34,1L34,-1L30,-1L30,1ZM38,1L42,1L42,-1L38,-1L38,1ZM46,1L50,1L50,-1L46,-1L46,1ZM54,1L58,1L58,-1L54,-1L54,1ZM62,1L66,1L66,-1L62,-1L62,1ZM70,1L74,1L74,-1L70,-1L70,1ZM78,1L82,1L82,-1L78,-1L78,1ZM86,1L90,1L90,-1L86,-1L86,1ZM94,1L98,1L98,-1L94,-1L94,1ZM102,1L106,1L106,-1L102,-1L102,1ZM110,1L114,1L114,-1L110,-1L110,1ZM118,1L122,1L122,-1L118,-1L118,1ZM126,1L130,1L130,-1L126,-1L126,1ZM134,1L138,1L138,-1L134,-1L134,1ZM142,1L146,1L146,-1L142,-1L142,1ZM150,1L154,1L154,-1L150,-1L150,1ZM158,1L162,1L162,-1L158,-1L158,1ZM166,1L170,1L170,-1L166,-1L166,1ZM174,1L178,1L178,-1L174,-1L174,1ZM182,1L186,1L186,-1L182,-1L182,1ZM190,1L194,1L194,-1L190,-1L190,1ZM198,1L202,1L202,-1L198,-1L198,1ZM206,1L210,1L210,-1L206,-1L206,1ZM214,1L218,1L218,-1L214,-1L214,1ZM222,1L226,1L226,-1L222,-1L222,1ZM230,1L234,1L234,-1L230,-1L230,1ZM238,1L242,1L242,-1L238,-1L238,1ZM246,1L250,1L250,-1L246,-1L246,1ZM254,1L258,1L258,-1L254,-1L254,1ZM262,1L266,1L266,-1L262,-1L262,1ZM270,1L274,1L274,-1L270,-1L270,1ZM278,1L282,1L282,-1L278,-1L278,1ZM286,1L290,1L290,-1L286,-1L286,1ZM294,1L298,1L298,-1L294,-1L294,1ZM302,1L306,1L306,-1L302,-1L302,1ZM310,1L314,1L314,-1L310,-1L310,1ZM318,1L322,1L322,-1L318,-1L318,1ZM326,1L330,1L330,-1L326,-1L326,1ZM334,1L338,1L338,-1L334,-1L334,1ZM342,1L346,1L346,-1L342,-1L342,1ZM350,1L354,1L354,-1L350,-1L350,1ZM358,1L362,1L362,-1L358,-1L358,1ZM366,1L370,1L370,-1L366,-1L366,1ZM374,1L378,1L378,-1L374,-1L374,1ZM382,1L386,1L386,-1L382,-1L382,1ZM390,1L394,1L394,-1L390,-1L390,1ZM398,1L402,1L402,-1L398,-1L398,1ZM406,1L410,1L410,-1L406,-1L406,1ZM414,1L418,1L418,-1L414,-1L414,1ZM422,1L426,1L426,-1L422,-1L422,1ZM430,1L434,1L434,-1L430,-1L430,1ZM438,1L442,1L442,-1L438,-1L438,1ZM446,1L450,1L450,-1L446,-1L446,1ZM454,1L458,1L458,-1L454,-1L454,1ZM462,1L466,1L466,-1L462,-1L462,1ZM470,1L474,1L474,-1L470,-1L470,1ZM478,1L482,1L482,-1L478,-1L478,1ZM486,1L490,1L490,-1L486,-1L486,1ZM494,1L498,1L498,-1L494,-1L494,1ZM502,1L506,1L506,-1L502,-1L502,1ZM510,1L514,1L514,-1L510,-1L510,1ZM518,1L522,1L522,-1L518,-1L518,1ZM526,1L530,1L530,-1L526,-1L526,1ZM534,1L538,1L538,-1L534,-1L534,1Z" fill="#E1E3E8"/>
</svg>
